<?xml version="1.0" encoding="utf-8"?>
<!-- Generator: Adobe Illustrator 14.0.0, SVG Export Plug-In . SVG Version: 6.00 Build 43363)  -->
<!DOCTYPE svg PUBLIC "-//W3C//DTD SVG 1.1//EN" "http://www.w3.org/Graphics/SVG/1.1/DTD/svg11.dtd">
<svg version="1.1" id="Layer_1" xmlns="http://www.w3.org/2000/svg" xmlns:xlink="http://www.w3.org/1999/xlink" x="0px" y="0px"
	 width="405.384px" height="333.077px" viewBox="0 0 405.384 333.077" enable-background="new 0 0 405.384 333.077"
	 xml:space="preserve">
<g>
	<g>
		
			<line fill="none" stroke="#000000" stroke-width="0.5201" stroke-miterlimit="10" x1="41.022" y1="288.272" x2="41.022" y2="283.94"/>
		
			<line fill="none" stroke="#000000" stroke-width="0.5201" stroke-miterlimit="10" x1="105.453" y1="288.272" x2="105.453" y2="283.94"/>
		
			<line fill="none" stroke="#000000" stroke-width="0.5201" stroke-miterlimit="10" x1="169.884" y1="288.272" x2="169.884" y2="283.94"/>
		
			<line fill="none" stroke="#000000" stroke-width="0.5201" stroke-miterlimit="10" x1="234.314" y1="288.272" x2="234.314" y2="283.94"/>
		
			<line fill="none" stroke="#000000" stroke-width="0.5201" stroke-miterlimit="10" x1="298.744" y1="288.272" x2="298.744" y2="283.94"/>
		
			<line fill="none" stroke="#000000" stroke-width="0.5201" stroke-miterlimit="10" x1="363.175" y1="288.272" x2="363.175" y2="283.94"/>
	</g>
</g>
<g>
	
		<line fill="none" stroke="#000000" stroke-width="0.5201" stroke-miterlimit="10" x1="8.807" y1="283.648" x2="395.391" y2="283.648"/>
	<g>
		<g>
			<g>
				<g>
					
						<line fill="none" stroke="#000000" stroke-width="1.0403" stroke-linecap="round" stroke-miterlimit="10" stroke-dasharray="0,3.6552" x1="15.145" y1="203.838" x2="392.223" y2="203.838"/>
					
						<line fill="none" stroke="#000000" stroke-width="1.0403" stroke-linecap="round" stroke-miterlimit="10" x1="395.391" y1="203.838" x2="395.391" y2="203.838"/>
				</g>
			</g>
			<g>
				<g>
					
						<line fill="none" stroke="#000000" stroke-width="1.0403" stroke-linecap="round" stroke-miterlimit="10" stroke-dasharray="0,3.6552" x1="15.145" y1="124.029" x2="392.223" y2="124.029"/>
					
						<line fill="none" stroke="#000000" stroke-width="1.0403" stroke-linecap="round" stroke-miterlimit="10" x1="395.391" y1="124.029" x2="395.391" y2="124.029"/>
				</g>
			</g>
			<g>
				<g>
					
						<line fill="none" stroke="#000000" stroke-width="1.0403" stroke-linecap="round" stroke-miterlimit="10" stroke-dasharray="0,3.6552" x1="15.145" y1="44.221" x2="392.223" y2="44.221"/>
					
						<line fill="none" stroke="#000000" stroke-width="1.0403" stroke-linecap="round" stroke-miterlimit="10" x1="395.391" y1="44.221" x2="395.391" y2="44.221"/>
				</g>
			</g>
		</g>
	</g>
</g>
<g>
	
		<line fill="none" stroke="#FFFFFF" stroke-width="2.6007" stroke-linecap="round" stroke-miterlimit="10" x1="105.453" y1="64.587" x2="41.022" y2="26.44"/>
	
		<line fill="none" stroke="#FFFFFF" stroke-width="2.6007" stroke-linecap="round" stroke-miterlimit="10" x1="169.884" y1="95.809" x2="105.453" y2="64.587"/>
	
		<line fill="none" stroke="#FFFFFF" stroke-width="2.6007" stroke-linecap="round" stroke-miterlimit="10" x1="234.314" y1="60.598" x2="169.884" y2="95.809"/>
	
		<line fill="none" stroke="#FFFFFF" stroke-width="2.6007" stroke-linecap="round" stroke-miterlimit="10" x1="298.744" y1="8.466" x2="234.314" y2="60.598"/>
	
		<line fill="none" stroke="#FFFFFF" stroke-width="2.6007" stroke-linecap="round" stroke-miterlimit="10" x1="363.175" y1="89.777" x2="298.744" y2="8.466"/>
</g>
<g>
	
		<line fill="none" stroke="#FFFFFF" stroke-width="2.6007" stroke-linecap="round" stroke-miterlimit="10" x1="105.453" y1="253.162" x2="41.022" y2="264.159"/>
	
		<line fill="none" stroke="#FFFFFF" stroke-width="2.6007" stroke-linecap="round" stroke-miterlimit="10" x1="169.884" y1="261.398" x2="105.453" y2="253.162"/>
	
		<line fill="none" stroke="#FFFFFF" stroke-width="2.6007" stroke-linecap="round" stroke-miterlimit="10" x1="234.314" y1="230.751" x2="169.884" y2="261.398"/>
	
		<line fill="none" stroke="#FFFFFF" stroke-width="2.6007" stroke-linecap="round" stroke-miterlimit="10" x1="298.744" y1="188.037" x2="234.314" y2="230.751"/>
	
		<line fill="none" stroke="#FFFFFF" stroke-width="2.6007" stroke-linecap="round" stroke-miterlimit="10" x1="363.175" y1="101.109" x2="298.744" y2="188.037"/>
</g>
<g>
	
		<line fill="none" stroke="#FFFFFF" stroke-width="2.6007" stroke-linecap="round" stroke-miterlimit="10" x1="105.453" y1="259.433" x2="41.022" y2="265.851"/>
	
		<line fill="none" stroke="#FFFFFF" stroke-width="2.6007" stroke-linecap="round" stroke-miterlimit="10" x1="169.884" y1="258.667" x2="105.453" y2="259.433"/>
	
		<line fill="none" stroke="#FFFFFF" stroke-width="2.6007" stroke-linecap="round" stroke-miterlimit="10" x1="234.314" y1="222.434" x2="169.884" y2="258.667"/>
	
		<line fill="none" stroke="#FFFFFF" stroke-width="2.6007" stroke-linecap="round" stroke-miterlimit="10" x1="298.744" y1="154.868" x2="234.314" y2="222.434"/>
	
		<line fill="none" stroke="#FFFFFF" stroke-width="2.6007" stroke-linecap="round" stroke-miterlimit="10" x1="363.175" y1="81.412" x2="298.744" y2="154.868"/>
</g>
<g>
	
		<line fill="none" stroke="#DDD1BE" stroke-width="3.4676" stroke-linecap="round" stroke-miterlimit="10" x1="105.453" y1="64.587" x2="41.022" y2="26.44"/>
	
		<line fill="none" stroke="#DDD1BE" stroke-width="3.4676" stroke-linecap="round" stroke-miterlimit="10" x1="169.884" y1="95.809" x2="105.453" y2="64.587"/>
	
		<line fill="none" stroke="#DDD1BE" stroke-width="3.4676" stroke-linecap="round" stroke-miterlimit="10" x1="234.314" y1="60.598" x2="169.884" y2="95.809"/>
	
		<line fill="none" stroke="#DDD1BE" stroke-width="3.4676" stroke-linecap="round" stroke-miterlimit="10" x1="298.744" y1="8.466" x2="234.314" y2="60.598"/>
	
		<line fill="none" stroke="#DDD1BE" stroke-width="3.4676" stroke-linecap="round" stroke-miterlimit="10" x1="363.175" y1="89.777" x2="298.744" y2="8.466"/>
</g>
<g>
	
		<line fill="none" stroke="#FFCC4E" stroke-width="2.6007" stroke-linecap="round" stroke-miterlimit="10" x1="105.453" y1="253.162" x2="41.022" y2="264.159"/>
	
		<line fill="none" stroke="#FFCC4E" stroke-width="2.6007" stroke-linecap="round" stroke-miterlimit="10" x1="169.884" y1="261.398" x2="105.453" y2="253.162"/>
	
		<line fill="none" stroke="#FFCC4E" stroke-width="2.6007" stroke-linecap="round" stroke-miterlimit="10" x1="234.314" y1="230.751" x2="169.884" y2="261.398"/>
	
		<line fill="none" stroke="#FFCC4E" stroke-width="2.6007" stroke-linecap="round" stroke-miterlimit="10" x1="298.744" y1="188.037" x2="234.314" y2="230.751"/>
	
		<line fill="none" stroke="#FFCC4E" stroke-width="2.6007" stroke-linecap="round" stroke-miterlimit="10" x1="363.175" y1="101.109" x2="298.744" y2="188.037"/>
</g>
<g>
	
		<line fill="none" stroke="#FFFFFF" stroke-width="3.4676" stroke-linecap="round" stroke-miterlimit="10" x1="105.453" y1="259.433" x2="41.022" y2="265.851"/>
	
		<line fill="none" stroke="#FFFFFF" stroke-width="3.4676" stroke-linecap="round" stroke-miterlimit="10" x1="169.884" y1="258.667" x2="105.453" y2="259.433"/>
	
		<line fill="none" stroke="#FFFFFF" stroke-width="3.4676" stroke-linecap="round" stroke-miterlimit="10" x1="234.314" y1="222.434" x2="169.884" y2="258.667"/>
	
		<line fill="none" stroke="#FFFFFF" stroke-width="3.4676" stroke-linecap="round" stroke-miterlimit="10" x1="298.744" y1="154.868" x2="234.314" y2="222.434"/>
	
		<line fill="none" stroke="#FFFFFF" stroke-width="3.4676" stroke-linecap="round" stroke-miterlimit="10" x1="363.175" y1="81.412" x2="298.744" y2="154.868"/>
</g>
<g>
	
		<line fill="none" stroke="#4FC7F3" stroke-width="3.4676" stroke-miterlimit="10" x1="105.453" y1="259.433" x2="41.022" y2="265.851"/>
	
		<line fill="none" stroke="#4FC7F3" stroke-width="3.4676" stroke-miterlimit="10" x1="169.884" y1="258.667" x2="105.453" y2="259.433"/>
	
		<line fill="none" stroke="#4FC7F3" stroke-width="3.4676" stroke-miterlimit="10" x1="234.314" y1="222.434" x2="169.884" y2="258.667"/>
	
		<line fill="none" stroke="#4FC7F3" stroke-width="3.4676" stroke-miterlimit="10" x1="298.744" y1="154.868" x2="234.314" y2="222.434"/>
	
		<line fill="none" stroke="#4FC7F3" stroke-width="3.4676" stroke-miterlimit="10" x1="363.175" y1="81.412" x2="298.744" y2="154.868"/>
</g>
<g>
	
		<line fill="none" stroke="#FFFFFF" stroke-width="4.3345" stroke-linecap="round" stroke-miterlimit="10" x1="105.453" y1="267.415" x2="41.022" y2="268.197"/>
	
		<line fill="none" stroke="#FFFFFF" stroke-width="4.3345" stroke-linecap="round" stroke-miterlimit="10" x1="169.884" y1="268.101" x2="105.453" y2="267.415"/>
	
		<line fill="none" stroke="#FFFFFF" stroke-width="4.3345" stroke-linecap="round" stroke-miterlimit="10" x1="234.314" y1="235.811" x2="169.884" y2="268.101"/>
	
		<line fill="none" stroke="#FFFFFF" stroke-width="4.3345" stroke-linecap="round" stroke-miterlimit="10" x1="298.744" y1="175.955" x2="234.314" y2="235.811"/>
	
		<line fill="none" stroke="#FFFFFF" stroke-width="4.3345" stroke-linecap="round" stroke-miterlimit="10" x1="363.175" y1="43.791" x2="298.744" y2="175.955"/>
</g>
<g>
	
		<line fill="none" stroke="#F68B62" stroke-width="3.4676" stroke-linecap="round" stroke-miterlimit="10" x1="105.453" y1="267.415" x2="41.022" y2="268.197"/>
	
		<line fill="none" stroke="#F68B62" stroke-width="3.4676" stroke-linecap="round" stroke-miterlimit="10" x1="169.884" y1="268.101" x2="105.453" y2="267.415"/>
	
		<line fill="none" stroke="#F68B62" stroke-width="3.4676" stroke-linecap="round" stroke-miterlimit="10" x1="234.314" y1="235.811" x2="169.884" y2="268.101"/>
	
		<line fill="none" stroke="#F68B62" stroke-width="3.4676" stroke-linecap="round" stroke-miterlimit="10" x1="298.744" y1="175.955" x2="234.314" y2="235.811"/>
	
		<line fill="none" stroke="#F68B62" stroke-width="3.4676" stroke-linecap="round" stroke-miterlimit="10" x1="363.175" y1="43.791" x2="298.744" y2="175.955"/>
</g>
<rect x="38.593" y="134.158" fill="none" width="241.76" height="54.654"/>
<text transform="matrix(1 0 0 1 38.5933 145.1074)"><tspan x="0" y="0" font-family="'Gotham-Bold'" font-size="15">Children illegally crossing the </tspan><tspan x="0" y="18" font-family="'Gotham-Bold'" font-size="15">U.S. border alone</tspan><tspan x="0" y="34" font-family="'Gotham-BookItalic'" font-size="12">(In thousands)</tspan></text>
<text transform="matrix(1 0 0 1 98.9771 94.4771)" font-family="'Gotham-Book'" font-size="12">Mexico</text>
<text transform="matrix(1 0 0 1 299.1841 85.6479)"><tspan x="0" y="0" font-family="'Gotham-Bold'" font-size="12">From</tspan><tspan x="-26.027" y="12" font-family="'Gotham-Bold'" font-size="12">Honduras</tspan></text>
<text transform="matrix(1 0 0 1 155.6831 225.7515)" font-family="'Gotham-Book'" font-size="12">Guatemala</text>
<text transform="matrix(1 0 0 1 318.5845 176.8716)"><tspan x="0" y="0" font-family="'Gotham-Book'" font-size="12">El</tspan><tspan x="0" y="12" font-family="'Gotham-Book'" font-size="12">Salvador</tspan></text>
<g>
	<text transform="matrix(1 0 0 1 22.4214 199.3374)" font-family="'Gotham-Book'" font-size="10">5</text>
	<text transform="matrix(1 0 0 1 17.8115 119.5278)" font-family="'Gotham-Book'" font-size="10">10</text>
	<text transform="matrix(1 0 0 1 18.8418 39.7192)" font-family="'Gotham-Book'" font-size="10">15</text>
</g>
<g>
	<text transform="matrix(1 0 0 1 15.5542 300.2407)" font-family="'Gotham-Book'" font-size="10">FY ’09</text>
	<text transform="matrix(1 0 0 1 100.1333 300.2407)" font-family="'Gotham-Book'" font-size="10">’10</text>
	<text transform="matrix(1 0 0 1 164.3188 300.2407)" font-family="'Gotham-Book'" font-size="10">’11</text>
	<text transform="matrix(1 0 0 1 228.4995 300.2407)" font-family="'Gotham-Book'" font-size="10">’12</text>
	<text transform="matrix(1 0 0 1 292.687 300.2407)" font-family="'Gotham-Book'" font-size="10">’13</text>
	<text transform="matrix(1 0 0 1 356.8677 300.2407)" font-family="'Gotham-Book'" font-size="10">’14</text>
</g>
<g>
	<text transform="matrix(1 0 0 1 10.8501 320.8159)"><tspan x="0" y="0" font-family="'Gotham-Book'" font-size="7">SOURCE: U.S. Customs and Border Protection                                                                           </tspan><tspan x="317.673" y="0" font-family="'Gotham-BookItalic'" font-size="7">The New York Times</tspan></text>
</g>
</svg>
