<?xml version="1.0" encoding="utf-8"?>
<!-- Generator: Adobe Illustrator 16.0.0, SVG Export Plug-In . SVG Version: 6.00 Build 0)  -->
<!DOCTYPE svg PUBLIC "-//W3C//DTD SVG 1.1//EN" "http://www.w3.org/Graphics/SVG/1.1/DTD/svg11.dtd">
<svg version="1.1" id="Layer_1" xmlns="http://www.w3.org/2000/svg" xmlns:xlink="http://www.w3.org/1999/xlink" x="0px" y="0px"
	 width="21px" height="21px" viewBox="0 0 21 21" enable-background="new 0 0 21 21" xml:space="preserve">
<path fill="#FFFFFF" d="M3.373,17.306c-3.899-3.899-3.899-10.243,0-14.142c3.898-3.899,10.243-3.899,14.142,0
	c3.899,3.899,3.899,10.243,0.001,14.141C13.617,21.205,7.272,21.205,3.373,17.306z M16.229,4.45c-3.189-3.19-8.381-3.191-11.571,0
	c-3.189,3.189-3.189,8.38,0.001,11.57c3.191,3.191,8.38,3.191,11.571,0.002C19.419,12.831,19.42,7.64,16.229,4.45z"/>
<path fill="#FFFFFF" d="M6.156,14.602c-0.47-0.468-0.47-1.23,0-1.698l6.58-6.58c0.468-0.47,1.23-0.47,1.699-0.002
	c0.47,0.471,0.468,1.23-0.003,1.699l-6.578,6.581C7.386,15.071,6.626,15.071,6.156,14.602z"/>
<path fill="#FFFFFF" d="M12.735,14.601l-6.579-6.58c-0.469-0.469-0.47-1.229,0-1.699c0.469-0.469,1.23-0.468,1.699,0l6.579,6.58
	c0.471,0.469,0.47,1.23,0.001,1.699C13.965,15.071,13.204,15.069,12.735,14.601z"/>
</svg>
