<?xml version="1.0" encoding="utf-8"?>
<!-- Generator: Adobe Illustrator 16.0.0, SVG Export Plug-In . SVG Version: 6.00 Build 0)  -->
<!DOCTYPE svg PUBLIC "-//W3C//DTD SVG 1.1//EN" "http://www.w3.org/Graphics/SVG/1.1/DTD/svg11.dtd">
<svg version="1.1" id="Layer_1" xmlns="http://www.w3.org/2000/svg" xmlns:xlink="http://www.w3.org/1999/xlink" x="0px" y="0px"
	 width="21px" height="21px" viewBox="0 0 21 21" enable-background="new 0 0 21 21" xml:space="preserve">
<path fill="#FFFFFF" d="M10.444,20.234c-5.515,0-10-4.486-10-9.999c-0.001-5.514,4.485-10,10-10c5.514,0,10,4.485,10,9.999
	C20.444,15.748,15.958,20.234,10.444,20.234z M10.444,2.054c-4.511,0-8.183,3.67-8.182,8.181c0,4.511,3.67,8.181,8.182,8.181
	c4.513,0,8.183-3.669,8.183-8.181C18.626,5.724,14.956,2.053,10.444,2.054z"/>
<path fill="#FFFFFF" d="M10.5,16.354c-0.663,0.001-1.202-0.538-1.201-1.201V5.848c-0.001-0.663,0.538-1.202,1.2-1.203
	c0.665,0.001,1.201,0.54,1.199,1.204l0.003,9.305C11.701,15.816,11.164,16.354,10.5,16.354z"/>
<path fill="#FFFFFF" d="M15.151,11.701H5.846c-0.664,0-1.201-0.537-1.201-1.201c0-0.663,0.539-1.201,1.201-1.201l9.305,0
	c0.664-0.001,1.202,0.538,1.202,1.201C16.354,11.165,15.813,11.701,15.151,11.701z"/>
</svg>
